<?xml version="1.0" standalone="no"?>
<!DOCTYPE svg PUBLIC "-//W3C//DTD SVG 20010904//EN"
 "http://www.w3.org/TR/2001/REC-SVG-20010904/DTD/svg10.dtd">
<svg version="1.0" xmlns="http://www.w3.org/2000/svg"
 width="685.000000pt" height="685.000000pt" viewBox="0 0 685.000000 685.000000"
 preserveAspectRatio="xMidYMid meet">
<metadata>
Created by potrace 1.11, written by Peter Selinger 2001-2013
</metadata>
<g transform="translate(0.000000,685.000000) scale(0.100000,-0.100000)"
fill="#000000" stroke="none">
<path d="M3125 5135 c-375 -21 -421 -29 -447 -76 -15 -26 -18 -57 -18 -192 0
-188 9 -227 52 -227 26 0 28 -3 28 -37 0 -20 5 -51 12 -69 10 -29 17 -34 57
-39 61 -9 107 -23 119 -38 13 -15 37 -128 282 -1313 110 -533 202 -978 205
-990 2 -11 15 -26 29 -32 19 -8 25 -21 31 -62 6 -43 12 -55 39 -71 27 -17 51
-19 199 -19 l167 0 15 32 c8 18 114 503 235 1078 210 999 257 1197 296 1258
26 40 41 46 127 46 111 1 108 -5 105 231 l-3 190 -37 24 c-35 22 -38 28 -38
71 0 63 -17 76 -142 111 -108 30 -503 99 -566 99 -101 -1 -112 -23 -112 -230
0 -177 7 -208 52 -217 25 -5 28 -10 28 -44 0 -61 18 -88 67 -102 50 -13 51
-17 27 -112 -9 -35 -58 -283 -109 -552 -51 -268 -95 -481 -98 -473 -12 33
-180 910 -188 980 -5 41 -6 87 -3 102 7 37 46 66 100 74 78 11 84 27 84 231 0
96 -4 182 -10 192 -5 10 -23 24 -40 31 -28 12 -30 16 -30 67 0 52 -1 55 -34
68 -51 22 -223 25 -481 10z"/>
<path d="M2405 5034 c-11 -3 -109 -28 -218 -55 -247 -62 -395 -114 -422 -148
-16 -20 -45 -160 -136 -641 -64 -338 -120 -633 -124 -655 -6 -35 -20 19 -104
407 -96 443 -110 488 -146 488 -7 0 -15 18 -19 41 -10 65 -31 96 -69 103 -35
6 -53 -3 -322 -164 -126 -76 -390 -272 -408 -303 -13 -21 -17 -54 -17 -128 0
-116 15 -159 55 -159 23 0 25 -4 25 -45 0 -65 22 -95 71 -95 l39 0 0 -576 c0
-566 0 -576 -21 -605 -14 -19 -37 -34 -72 -44 -63 -19 -69 -23 -85 -58 -12
-29 -17 -204 -6 -244 4 -14 20 -27 40 -35 30 -11 34 -16 34 -48 0 -54 9 -77
36 -89 17 -7 128 -11 339 -11 l314 0 16 30 c9 17 15 55 15 92 0 35 4 58 8 52
4 -6 17 -16 29 -22 15 -9 23 -25 28 -63 11 -79 35 -89 207 -89 134 0 137 0
156 25 11 14 23 47 27 74 6 42 9 48 26 44 14 -4 19 -14 19 -42 0 -55 9 -77 36
-90 17 -8 156 -11 445 -11 l419 0 10 26 c13 33 13 250 0 273 -5 10 -23 24 -40
31 -28 11 -30 16 -30 61 0 45 -3 51 -32 70 -18 11 -45 22 -60 26 -20 4 -28 12
-28 27 0 11 0 432 0 935 l0 914 26 47 c25 46 48 62 117 84 36 11 47 66 47 228
0 168 -8 198 -56 198 -22 0 -24 3 -24 53 0 71 -15 89 -76 93 -27 1 -58 0 -69
-2z m-560 -2460 c-20 -69 -107 -146 -92 -81 3 12 27 141 54 286 l48 265 3
-209 c2 -163 -1 -220 -13 -261z m-655 -271 c0 -9 -7 -10 -22 -4 -19 7 -24 17
-28 67 l-5 59 -45 14 c-25 8 -51 15 -57 17 -10 3 -13 69 -12 291 l0 288 84
-360 c46 -198 84 -365 85 -372z"/>
<path d="M4739 4903 c-37 -10 -39 -50 -39 -729 0 -362 3 -669 6 -681 4 -14 20
-27 40 -35 30 -11 34 -16 34 -48 0 -54 9 -77 36 -89 37 -16 285 -15 309 2 15
12 19 36 26 178 22 442 57 636 119 669 20 11 20 2 20 -766 0 -704 -2 -782 -17
-831 -19 -61 -77 -123 -116 -123 -26 -1 -46 -15 -70 -52 -13 -21 -17 -49 -17
-121 0 -105 12 -141 53 -158 22 -9 27 -18 27 -48 0 -55 9 -77 36 -90 17 -8
156 -11 444 -11 l419 0 16 30 c17 33 22 239 5 269 -5 10 -23 24 -39 31 -28 11
-30 16 -33 68 l-3 57 -54 21 c-29 12 -57 28 -62 35 -11 17 -12 1459 -1 1459 4
0 27 -19 50 -42 58 -60 74 -110 79 -253 5 -139 14 -169 54 -185 24 -11 29 -18
29 -49 0 -93 17 -101 195 -101 l134 0 16 30 c12 24 15 77 15 306 l0 276 -40
40 c-28 28 -40 49 -40 69 0 54 -19 76 -142 166 -388 283 -850 523 -1298 674
-106 36 -150 43 -191 32z"/>
</g>
</svg>
